<?xml version="1.0" encoding="UTF-8"?>
<svg id="Livello_1" data-name="Livello 1" xmlns="http://www.w3.org/2000/svg" viewBox="0 0 1920 1028">
  <path d="m925.49,132.26v119.49c-14.33,3.24-28.8,5.56-42.69,9.81-52.44,16.05-95.81,45.67-130.4,88.35-29.49,36.39-48.12,77.75-54.67,123.86-10.8,76.06,5.07,145.58,55.37,205.39,35.67,42.41,80.14,71.5,133.71,86.14,10.48,2.86,21.36,4.28,32.09,6.2,3.9.7,7.08,1.19,7.06,6.56-.2,38.45-.16,76.9-.23,115.34,0,.54-.31,1.08-.93,3.12-25.1.31-49.52-5.65-73.58-12.98-74.95-22.83-138.17-63.49-189.53-123.12-108.04-125.45-113.31-305.77-41.53-431.38,77.27-135.22,213.57-194.94,305.33-196.77Z"/>
  <path d="m993.11,897.43c-.39-3.51-1.02-6.54-1.02-9.58-.03-35.84.18-71.69-.08-107.53-.05-6.43,2.23-8.19,8.29-8.93,47.17-5.75,89.13-24.23,126.01-53.87,34.06-27.38,60.74-60.67,76.76-101.74,3.41-8.75,5.62-17.96,8.74-28.11h-293.98v-112.53h427.01c25.62,201.85-126.53,404.46-351.73,422.28Z"/>
  <path d="m1321.08,376.06c-18.38,0-36.26-.01-54.14,0-23.99.02-47.99-.24-71.96.31-6.94.16-10.99-2.16-14.72-7.66-29.28-43.04-67.62-75.34-115.44-96.12-20.93-9.1-42.61-15.84-65.42-18.18-4.73-.49-6.69-2.17-6.7-6.85-.08-37.28-.19-74.56-.42-111.84-.04-5.88,3.17-5.29,7.39-4.96,50.38,3.92,97.66,18.66,141.81,42.62,75.69,41.07,133.1,100.13,170.54,178.05,2.98,6.2,5.26,12.75,7.76,19.17.6,1.54.79,3.24,1.31,5.46Z"/>
</svg>